# Blender 5.2.0 LTS
# www.blender.org
mtllib piglin_head.mtl
o piglin_head
v 0.312500 0.250000 0.250000
v 0.312500 0.250000 -0.250000
v 0.312500 -0.250000 0.250000
v 0.312500 -0.250000 -0.250000
v -0.312500 0.250000 -0.250000
v -0.312500 0.250000 0.250000
v -0.312500 -0.250000 -0.250000
v -0.312500 -0.250000 0.250000
v -0.281250 0.125000 0.125000
v -0.281250 0.125000 -0.125000
v -0.460493 -0.130985 0.125000
v -0.460493 -0.130985 -0.125000
v -0.332447 0.160849 -0.125000
v -0.332447 0.160849 0.125000
v -0.511690 -0.095137 -0.125000
v -0.511690 -0.095136 0.125000
v 0.332447 0.160849 0.125000
v 0.332447 0.160849 -0.125000
v 0.511690 -0.095136 0.125000
v 0.511690 -0.095137 -0.125000
v 0.281250 0.125000 -0.125000
v 0.281250 0.125000 0.125000
v 0.460493 -0.130985 -0.125000
v 0.460493 -0.130985 0.125000
v 0.125000 -0.000000 -0.250000
v 0.125000 -0.000000 -0.312500
v 0.125000 -0.250000 -0.250000
v 0.125000 -0.250000 -0.312500
v -0.125000 -0.000000 -0.312500
v -0.125000 -0.000000 -0.250000
v -0.125000 -0.250000 -0.312500
v -0.125000 -0.250000 -0.250000
v -0.125000 -0.125000 -0.250000
v -0.125000 -0.125000 -0.312500
v -0.125000 -0.250000 -0.250000
v -0.125000 -0.250000 -0.312500
v -0.187500 -0.125000 -0.312500
v -0.187500 -0.125000 -0.250000
v -0.187500 -0.250000 -0.312500
v -0.187500 -0.250000 -0.250000
v 0.187500 -0.125000 -0.250000
v 0.187500 -0.125000 -0.312500
v 0.187500 -0.250000 -0.250000
v 0.187500 -0.250000 -0.312500
v 0.125000 -0.125000 -0.312500
v 0.125000 -0.125000 -0.250000
v 0.125000 -0.250000 -0.312500
v 0.125000 -0.250000 -0.250000
vn -0.0000 -0.0000 -1.0000
vn 1.0000 -0.0000 -0.0000
vn -0.0000 -0.0000 1.0000
vn -1.0000 -0.0000 -0.0000
vn -0.0000 1.0000 -0.0000
vn -0.0000 -1.0000 -0.0000
vn 0.8192 -0.5736 -0.0000
vn -0.8192 0.5736 -0.0000
vn 0.5736 0.8192 -0.0000
vn -0.5736 -0.8192 -0.0000
vn 0.8192 0.5736 -0.0000
vn -0.8192 -0.5736 -0.0000
vn -0.5736 0.8192 -0.0000
vn 0.5736 -0.8192 -0.0000
vt 0.125000 0.750000
vt 0.281250 0.750000
vt 0.281250 0.875000
vt 0.125000 0.875000
vt 0.000000 0.750000
vt 0.000000 0.875000
vt 0.406250 0.750000
vt 0.562500 0.750000
vt 0.562500 0.875000
vt 0.406250 0.875000
vt 0.281250 1.000000
vt 0.125000 1.000000
vt 0.437500 0.875000
vt 0.437500 1.000000
vt 0.859375 0.765625
vt 0.875000 0.765625
vt 0.875000 0.843750
vt 0.859375 0.843750
vt 0.796875 0.765625
vt 0.796875 0.843750
vt 0.937500 0.765625
vt 0.953125 0.765625
vt 0.953125 0.843750
vt 0.937500 0.843750
vt 0.875000 0.906250
vt 0.859375 0.906250
vt 0.890625 0.843750
vt 0.890625 0.906250
vt 0.671875 0.765625
vt 0.687500 0.765625
vt 0.687500 0.843750
vt 0.671875 0.843750
vt 0.609375 0.765625
vt 0.609375 0.843750
vt 0.750000 0.765625
vt 0.765625 0.765625
vt 0.765625 0.843750
vt 0.750000 0.843750
vt 0.687500 0.906250
vt 0.671875 0.906250
vt 0.703125 0.843750
vt 0.703125 0.906250
vt 0.500000 0.906250
vt 0.562500 0.906250
vt 0.562500 0.968750
vt 0.500000 0.968750
vt 0.484375 0.906250
vt 0.484375 0.968750
vt 0.578125 0.906250
vt 0.640625 0.906250
vt 0.640625 0.968750
vt 0.578125 0.968750
vt 0.562500 0.984375
vt 0.500000 0.984375
vt 0.625000 0.968750
vt 0.625000 0.984375
vt 0.046875 0.890625
vt 0.062500 0.890625
vt 0.062500 0.921875
vt 0.046875 0.921875
vt 0.031250 0.890625
vt 0.031250 0.921875
vt 0.078125 0.890625
vt 0.093750 0.890625
vt 0.093750 0.921875
vt 0.078125 0.921875
vt 0.062500 0.937500
vt 0.046875 0.937500
vt 0.078125 0.937500
vt 0.046875 0.953125
vt 0.062500 0.953125
vt 0.062500 0.984375
vt 0.046875 0.984375
vt 0.031250 0.953125
vt 0.031250 0.984375
vt 0.078125 0.953125
vt 0.093750 0.953125
vt 0.093750 0.984375
vt 0.078125 0.984375
vt 0.062500 1.000000
vt 0.046875 1.000000
vt 0.078125 1.000000
s 0
usemtl Piglin_Head
f 4/1/1 7/2/1 5/3/1 2/4/1
f 3/5/2 4/1/2 2/4/2 1/6/2
f 8/7/3 3/8/3 1/9/3 6/10/3
f 7/2/4 8/7/4 6/10/4 5/3/4
f 6/11/5 1/12/5 2/4/5 5/3/5
f 7/13/6 4/3/6 3/11/6 8/14/6
f 12/15/1 15/16/1 13/17/1 10/18/1
f 11/19/7 12/15/7 10/18/7 9/20/7
f 16/21/3 11/22/3 9/23/3 14/24/3
f 15/16/8 16/21/8 14/24/8 13/17/8
f 14/25/9 9/26/9 10/18/9 13/17/9
f 15/27/10 12/17/10 11/25/10 16/28/10
f 20/29/1 23/30/1 21/31/1 18/32/1
f 19/33/11 20/29/11 18/32/11 17/34/11
f 24/35/3 19/36/3 17/37/3 22/38/3
f 23/30/12 24/35/12 22/38/12 21/31/12
f 22/39/13 17/40/13 18/32/13 21/31/13
f 23/41/14 20/31/14 19/39/14 24/42/14
f 28/43/1 31/44/1 29/45/1 26/46/1
f 27/47/2 28/43/2 26/46/2 25/48/2
f 32/49/3 27/50/3 25/51/3 30/52/3
f 31/44/4 32/49/4 30/52/4 29/45/4
f 30/53/5 25/54/5 26/46/5 29/45/5
f 31/55/6 28/45/6 27/53/6 32/56/6
f 36/57/1 39/58/1 37/59/1 34/60/1
f 35/61/2 36/57/2 34/60/2 33/62/2
f 40/63/3 35/64/3 33/65/3 38/66/3
f 39/58/4 40/63/4 38/66/4 37/59/4
f 38/67/5 33/68/5 34/60/5 37/59/5
f 39/66/6 36/59/6 35/67/6 40/69/6
f 44/70/1 47/71/1 45/72/1 42/73/1
f 43/74/2 44/70/2 42/73/2 41/75/2
f 48/76/3 43/77/3 41/78/3 46/79/3
f 47/71/4 48/76/4 46/79/4 45/72/4
f 46/80/5 41/81/5 42/73/5 45/72/5
f 47/79/6 44/72/6 43/80/6 48/82/6
