# Minecraft Shulker Box (Authoritative 1:1 geometry)
v -0.500000 -0.500000 -0.500000
v -0.500000 -0.500000 0.500000
v 0.500000 -0.500000 0.500000
v 0.500000 -0.500000 -0.500000
v -0.250000 -0.500000 0.500000
v 0.250000 -0.500000 0.500000
v -0.250000 -0.000000 0.500000
v 0.250000 -0.000000 0.500000
v -0.250000 -0.500000 -0.500000
v 0.250000 -0.500000 -0.500000
v -0.250000 0.000000 -0.500000
v 0.250000 0.000000 -0.500000
v -0.500000 -0.500000 -0.250000
v -0.500000 -0.500000 0.250000
v -0.500000 0.000000 -0.250000
v -0.500000 0.000000 0.250000
v 0.500000 -0.500000 0.250000
v 0.500000 -0.500000 -0.250000
v 0.500000 -0.000000 0.250000
v 0.500000 0.000000 -0.250000
v 0.250000 -0.500000 0.250000
v 0.250000 -0.500000 -0.250000
v -0.250000 -0.500000 0.250000
v -0.250000 -0.500000 -0.250000
v 0.437500 0.000000 -0.250000
v 0.437500 0.000000 0.250000
v 0.250000 0.000000 -0.437500
v 0.250000 0.000000 0.437500
v -0.250000 0.000000 -0.437500
v -0.250000 0.000000 0.437500
v -0.437500 0.000000 -0.250000
v -0.437500 0.000000 0.250000
v -0.500000 -0.250000 0.500000
v 0.500000 -0.250000 0.500000
v -0.500000 -0.250000 -0.500000
v 0.500000 -0.250000 -0.500000
v 0.250000 -0.250000 -0.500000
v -0.250000 -0.250000 -0.500000
v -0.250000 -0.250000 0.500000
v 0.250000 -0.250000 0.500000
v 0.500000 -0.250000 0.250000
v 0.500000 -0.250000 -0.250000
v -0.500000 -0.250000 -0.250000
v -0.500000 -0.250000 0.250000
v -0.500000 0.500000 -0.500000
v -0.500000 0.500000 0.500000
v -0.500000 -0.250000 -0.500000
v -0.500000 -0.250000 0.500000
v 0.500000 0.500000 0.500000
v 0.500000 0.500000 -0.500000
v 0.500000 -0.250000 0.500000
v 0.500000 -0.250000 -0.500000
v -0.437500 -0.250000 0.500000
v -0.250000 -0.250000 0.500000
v 0.250000 -0.250000 0.500000
v 0.437500 -0.250000 0.500000
v -0.437500 0.500000 0.500000
v -0.250000 0.500000 0.500000
v 0.250000 0.500000 0.500000
v 0.437500 0.500000 0.500000
v -0.437500 -0.250000 -0.500000
v -0.250000 -0.250000 -0.500000
v 0.250000 -0.250000 -0.500000
v 0.437500 -0.250000 -0.500000
v -0.437500 0.500000 -0.500000
v -0.250000 0.500000 -0.500000
v 0.250000 0.500000 -0.500000
v 0.437500 0.500000 -0.500000
v -0.500000 -0.250000 -0.437500
v -0.500000 -0.250000 -0.250000
v -0.500000 -0.250000 0.250000
v -0.500000 -0.250000 0.437500
v -0.500000 0.500000 -0.437500
v -0.500000 0.500000 -0.250000
v -0.500000 0.500000 0.250000
v -0.500000 0.500000 0.437500
v 0.500000 -0.250000 0.437500
v 0.500000 -0.250000 0.250000
v 0.500000 -0.250000 -0.250000
v 0.500000 -0.250000 -0.437500
v 0.500000 0.500000 0.437500
v 0.500000 0.500000 0.250000
v 0.500000 0.500000 -0.250000
v 0.500000 0.500000 -0.437500
v 0.437500 -0.250000 0.437500
v 0.437500 -0.250000 0.250000
v 0.437500 -0.250000 -0.250000
v 0.437500 -0.250000 -0.437500
v 0.250000 -0.250000 0.437500
v 0.250000 -0.250000 -0.437500
v -0.250000 -0.250000 0.437500
v -0.250000 -0.250000 -0.437500
v -0.437500 -0.250000 0.437500
v -0.437500 -0.250000 0.250000
v -0.437500 -0.250000 -0.250000
v -0.437500 -0.250000 -0.437500
v 0.437500 0.500000 -0.437500
v 0.437500 0.500000 -0.250000
v 0.437500 0.500000 0.250000
v 0.437500 0.500000 0.437500
v 0.250000 0.500000 -0.437500
v 0.250000 0.500000 -0.250000
v 0.250000 0.500000 0.250000
v 0.250000 0.500000 0.437500
v -0.250000 0.500000 -0.437500
v -0.250000 0.500000 -0.250000
v -0.250000 0.500000 0.250000
v -0.250000 0.500000 0.437500
v -0.437500 0.500000 -0.437500
v -0.437500 0.500000 -0.250000
v -0.437500 0.500000 0.250000
v -0.437500 0.500000 0.437500
v -0.500000 0.250000 0.500000
v -0.500000 -0.000000 0.500000
v 0.500000 0.250000 0.500000
v 0.500000 -0.000000 0.500000
v -0.500000 0.250000 -0.500000
v -0.500000 0.000000 -0.500000
v 0.500000 0.250000 -0.500000
v 0.500000 0.000000 -0.500000
v 0.437500 0.000000 -0.500000
v 0.437500 0.250000 -0.500000
v 0.250000 0.000000 -0.500000
v 0.250000 0.250000 -0.500000
v -0.250000 0.000000 -0.500000
v -0.250000 0.250000 -0.500000
v -0.437500 0.000000 -0.500000
v -0.437500 0.250000 -0.500000
v -0.437500 -0.000000 0.500000
v -0.437500 0.250000 0.500000
v -0.250000 -0.000000 0.500000
v -0.250000 0.250000 0.500000
v 0.250000 -0.000000 0.500000
v 0.250000 0.250000 0.500000
v 0.437500 -0.000000 0.500000
v 0.437500 0.250000 0.500000
v 0.500000 -0.000000 0.437500
v 0.500000 0.250000 0.437500
v 0.500000 -0.000000 0.250000
v 0.500000 0.250000 0.250000
v 0.500000 0.000000 -0.250000
v 0.500000 0.250000 -0.250000
v 0.500000 0.000000 -0.437500
v 0.500000 0.250000 -0.437500
v -0.500000 0.000000 -0.437500
v -0.500000 0.250000 -0.437500
v -0.500000 0.000000 -0.250000
v -0.500000 0.250000 -0.250000
v -0.500000 0.000000 0.250000
v -0.500000 0.250000 0.250000
v -0.500000 -0.000000 0.437500
v -0.500000 0.250000 0.437500
vt 0.312500 0.328125
vt 0.312500 0.312500
vt 0.437500 0.312500
vt 0.437500 0.328125
vt 0.937500 0.250000
vt 0.937500 0.312500
vt 0.812500 0.312500
vt 0.812500 0.250000
vt 0.437500 0.250000
vt 0.437500 0.312500
vt 0.312500 0.312500
vt 0.312500 0.250000
vt 0.437500 0.562500
vt 0.312500 0.562500
vt 0.312500 0.546875
vt 0.437500 0.546875
vt 0.484375 0.500000
vt 0.484375 0.375000
vt 0.500000 0.375000
vt 0.500000 0.500000
vt 0.500000 0.375000
vt 0.562500 0.375000
vt 0.562500 0.312500
vt 0.500000 0.312500
vt 0.687500 0.312500
vt 0.562500 0.312500
vt 0.562500 0.375000
vt 0.687500 0.375000
vt 0.562500 0.375000
vt 0.562500 0.500000
vt 0.687500 0.500000
vt 0.687500 0.375000
vt 0.562500 0.500000
vt 0.562500 0.562500
vt 0.687500 0.562500
vt 0.687500 0.500000
vt 0.687500 0.500000
vt 0.750000 0.500000
vt 0.750000 0.375000
vt 0.687500 0.375000
vt 0.687500 0.500000
vt 0.687500 0.562500
vt 0.750000 0.562500
vt 0.750000 0.500000
vt 0.687500 0.375000
vt 0.750000 0.375000
vt 0.750000 0.312500
vt 0.687500 0.312500
vt 0.500000 0.500000
vt 0.562500 0.500000
vt 0.562500 0.375000
vt 0.500000 0.375000
vt 0.500000 0.562500
vt 0.562500 0.562500
vt 0.562500 0.500000
vt 0.500000 0.500000
vt 0.250000 0.500000
vt 0.250000 0.375000
vt 0.265625 0.375000
vt 0.265625 0.500000
vt 0.687500 0.250000
vt 0.687500 0.312500
vt 0.562500 0.312500
vt 0.562500 0.250000
vt 0.187500 0.250000
vt 0.187500 0.312500
vt 0.062500 0.312500
vt 0.062500 0.250000
vt 0.187500 0.187500
vt 0.250000 0.187500
vt 0.250000 0.250000
vt 0.187500 0.250000
vt 0.062500 0.187500
vt 0.187500 0.187500
vt 0.187500 0.250000
vt 0.062500 0.250000
vt 0.000000 0.187500
vt 0.062500 0.187500
vt 0.062500 0.250000
vt 0.000000 0.250000
vt 0.687500 0.187500
vt 0.750000 0.187500
vt 0.750000 0.250000
vt 0.687500 0.250000
vt 0.562500 0.187500
vt 0.687500 0.187500
vt 0.687500 0.250000
vt 0.562500 0.250000
vt 0.500000 0.187500
vt 0.562500 0.187500
vt 0.562500 0.250000
vt 0.500000 0.250000
vt 0.437500 0.187500
vt 0.500000 0.187500
vt 0.500000 0.250000
vt 0.437500 0.250000
vt 0.312500 0.187500
vt 0.437500 0.187500
vt 0.437500 0.250000
vt 0.312500 0.250000
vt 0.250000 0.187500
vt 0.312500 0.187500
vt 0.312500 0.250000
vt 0.250000 0.250000
vt 0.937500 0.187500
vt 1.000000 0.187500
vt 1.000000 0.250000
vt 0.937500 0.250000
vt 0.812500 0.187500
vt 0.937500 0.187500
vt 0.937500 0.250000
vt 0.812500 0.250000
vt 0.750000 0.187500
vt 0.812500 0.187500
vt 0.812500 0.250000
vt 0.750000 0.250000
vt 0.484375 0.687500
vt 0.500000 0.687500
vt 0.500000 0.750000
vt 0.484375 0.750000
vt 0.234375 0.687500
vt 0.250000 0.687500
vt 0.250000 0.750000
vt 0.234375 0.750000
vt 0.984375 0.687500
vt 1.000000 0.687500
vt 1.000000 0.750000
vt 0.984375 0.750000
vt 0.734375 0.687500
vt 0.750000 0.687500
vt 0.750000 0.750000
vt 0.734375 0.750000
vt 0.265625 0.765625
vt 0.250000 0.765625
vt 0.250000 0.750000
vt 0.265625 0.750000
vt 0.515625 0.984375
vt 0.500000 0.984375
vt 0.500000 1.000000
vt 0.515625 1.000000
vt 0.750000 0.984375
vt 0.734375 0.984375
vt 0.734375 1.000000
vt 0.750000 1.000000
vt 0.687500 0.984375
vt 0.687500 1.000000
vt 0.734375 1.000000
vt 0.734375 0.984375
vt 0.515625 0.984375
vt 0.515625 1.000000
vt 0.562500 1.000000
vt 0.562500 0.984375
vt 0.500000 0.765625
vt 0.484375 0.765625
vt 0.484375 0.750000
vt 0.500000 0.750000
vt 0.437500 0.765625
vt 0.437500 0.750000
vt 0.484375 0.750000
vt 0.484375 0.765625
vt 0.312500 0.765625
vt 0.312500 0.750000
vt 0.437500 0.750000
vt 0.437500 0.765625
vt 0.265625 0.765625
vt 0.265625 0.750000
vt 0.312500 0.750000
vt 0.312500 0.765625
vt 0.750000 0.687500
vt 0.765625 0.687500
vt 0.765625 0.750000
vt 0.750000 0.750000
vt 0.812500 0.687500
vt 0.812500 0.750000
vt 0.765625 0.750000
vt 0.765625 0.687500
vt 0.937500 0.687500
vt 0.937500 0.750000
vt 0.812500 0.750000
vt 0.812500 0.687500
vt 0.984375 0.687500
vt 0.984375 0.750000
vt 0.937500 0.750000
vt 0.937500 0.687500
vt 0.250000 0.687500
vt 0.265625 0.687500
vt 0.265625 0.750000
vt 0.250000 0.750000
vt 0.312500 0.687500
vt 0.312500 0.750000
vt 0.265625 0.750000
vt 0.265625 0.687500
vt 0.437500 0.687500
vt 0.437500 0.750000
vt 0.312500 0.750000
vt 0.312500 0.687500
vt 0.484375 0.687500
vt 0.484375 0.750000
vt 0.437500 0.750000
vt 0.437500 0.687500
vt 0.265625 0.984375
vt 0.265625 0.937500
vt 0.312500 0.937500
vt 0.312500 0.984375
vt 0.265625 0.812500
vt 0.312500 0.812500
vt 0.312500 0.937500
vt 0.265625 0.937500
vt 0.265625 0.812500
vt 0.265625 0.765625
vt 0.312500 0.765625
vt 0.312500 0.812500
vt 0.312500 1.000000
vt 0.265625 1.000000
vt 0.265625 0.984375
vt 0.312500 0.984375
vt 0.312500 0.984375
vt 0.312500 0.937500
vt 0.437500 0.937500
vt 0.437500 0.984375
vt 0.312500 0.937500
vt 0.312500 0.812500
vt 0.437500 0.812500
vt 0.437500 0.937500
vt 0.312500 0.812500
vt 0.312500 0.765625
vt 0.437500 0.765625
vt 0.437500 0.812500
vt 0.437500 1.000000
vt 0.312500 1.000000
vt 0.312500 0.984375
vt 0.437500 0.984375
vt 0.437500 0.984375
vt 0.437500 0.937500
vt 0.484375 0.937500
vt 0.484375 0.984375
vt 0.437500 0.812500
vt 0.484375 0.812500
vt 0.484375 0.937500
vt 0.437500 0.937500
vt 0.437500 0.812500
vt 0.437500 0.765625
vt 0.484375 0.765625
vt 0.484375 0.812500
vt 0.484375 1.000000
vt 0.437500 1.000000
vt 0.437500 0.984375
vt 0.484375 0.984375
vt 0.500000 1.000000
vt 0.484375 1.000000
vt 0.484375 0.984375
vt 0.500000 0.984375
vt 0.484375 0.984375
vt 0.484375 0.937500
vt 0.500000 0.937500
vt 0.500000 0.984375
vt 0.484375 0.937500
vt 0.484375 0.812500
vt 0.500000 0.812500
vt 0.500000 0.937500
vt 0.484375 0.812500
vt 0.484375 0.765625
vt 0.500000 0.765625
vt 0.500000 0.812500
vt 0.562500 0.750000
vt 0.515625 0.750000
vt 0.515625 0.765625
vt 0.562500 0.765625
vt 0.734375 0.750000
vt 0.687500 0.750000
vt 0.687500 0.765625
vt 0.734375 0.765625
vt 0.750000 0.750000
vt 0.734375 0.750000
vt 0.734375 0.765625
vt 0.750000 0.765625
vt 0.734375 0.765625
vt 0.734375 0.812500
vt 0.750000 0.812500
vt 0.750000 0.765625
vt 0.734375 0.937500
vt 0.734375 0.984375
vt 0.750000 0.984375
vt 0.750000 0.937500
vt 0.515625 0.750000
vt 0.500000 0.750000
vt 0.500000 0.765625
vt 0.515625 0.765625
vt 0.500000 0.812500
vt 0.515625 0.812500
vt 0.515625 0.765625
vt 0.500000 0.765625
vt 0.500000 0.984375
vt 0.515625 0.984375
vt 0.515625 0.937500
vt 0.500000 0.937500
vt 0.265625 1.000000
vt 0.250000 1.000000
vt 0.250000 0.984375
vt 0.265625 0.984375
vt 0.250000 0.984375
vt 0.250000 0.937500
vt 0.265625 0.937500
vt 0.265625 0.984375
vt 0.250000 0.937500
vt 0.250000 0.812500
vt 0.265625 0.812500
vt 0.265625 0.937500
vt 0.250000 0.812500
vt 0.250000 0.765625
vt 0.265625 0.765625
vt 0.265625 0.812500
vt 0.500000 0.687500
vt 0.515625 0.687500
vt 0.515625 0.750000
vt 0.500000 0.750000
vt 0.562500 0.687500
vt 0.562500 0.750000
vt 0.515625 0.750000
vt 0.515625 0.687500
vt 0.687500 0.687500
vt 0.687500 0.750000
vt 0.562500 0.750000
vt 0.562500 0.687500
vt 0.734375 0.687500
vt 0.734375 0.750000
vt 0.687500 0.750000
vt 0.687500 0.687500
vt 0.000000 0.687500
vt 0.015625 0.687500
vt 0.015625 0.750000
vt 0.000000 0.750000
vt 0.062500 0.687500
vt 0.062500 0.750000
vt 0.015625 0.750000
vt 0.015625 0.687500
vt 0.187500 0.687500
vt 0.187500 0.750000
vt 0.062500 0.750000
vt 0.062500 0.687500
vt 0.234375 0.687500
vt 0.234375 0.750000
vt 0.187500 0.750000
vt 0.187500 0.687500
vt 0.187500 0.625000
vt 0.234375 0.625000
vt 0.234375 0.687500
vt 0.187500 0.687500
vt 0.187500 0.562500
vt 0.234375 0.562500
vt 0.234375 0.625000
vt 0.187500 0.625000
vt 0.062500 0.625000
vt 0.187500 0.625000
vt 0.187500 0.687500
vt 0.062500 0.687500
vt 0.015625 0.625000
vt 0.062500 0.625000
vt 0.062500 0.687500
vt 0.015625 0.687500
vt 0.015625 0.562500
vt 0.062500 0.562500
vt 0.062500 0.625000
vt 0.015625 0.625000
vt 0.000000 0.562500
vt 0.015625 0.562500
vt 0.015625 0.625000
vt 0.000000 0.625000
vt 0.000000 0.625000
vt 0.015625 0.625000
vt 0.015625 0.687500
vt 0.000000 0.687500
vt 0.687500 0.625000
vt 0.734375 0.625000
vt 0.734375 0.687500
vt 0.687500 0.687500
vt 0.687500 0.562500
vt 0.734375 0.562500
vt 0.734375 0.625000
vt 0.687500 0.625000
vt 0.562500 0.625000
vt 0.687500 0.625000
vt 0.687500 0.687500
vt 0.562500 0.687500
vt 0.515625 0.625000
vt 0.562500 0.625000
vt 0.562500 0.687500
vt 0.515625 0.687500
vt 0.515625 0.562500
vt 0.562500 0.562500
vt 0.562500 0.625000
vt 0.515625 0.625000
vt 0.500000 0.562500
vt 0.515625 0.562500
vt 0.515625 0.625000
vt 0.500000 0.625000
vt 0.500000 0.625000
vt 0.515625 0.625000
vt 0.515625 0.687500
vt 0.500000 0.687500
vt 0.437500 0.625000
vt 0.484375 0.625000
vt 0.484375 0.687500
vt 0.437500 0.687500
vt 0.437500 0.562500
vt 0.484375 0.562500
vt 0.484375 0.625000
vt 0.437500 0.625000
vt 0.312500 0.625000
vt 0.437500 0.625000
vt 0.437500 0.687500
vt 0.312500 0.687500
vt 0.265625 0.625000
vt 0.312500 0.625000
vt 0.312500 0.687500
vt 0.265625 0.687500
vt 0.265625 0.562500
vt 0.312500 0.562500
vt 0.312500 0.625000
vt 0.265625 0.625000
vt 0.250000 0.562500
vt 0.265625 0.562500
vt 0.265625 0.625000
vt 0.250000 0.625000
vt 0.250000 0.625000
vt 0.265625 0.625000
vt 0.265625 0.687500
vt 0.250000 0.687500
vt 0.937500 0.625000
vt 0.984375 0.625000
vt 0.984375 0.687500
vt 0.937500 0.687500
vt 0.937500 0.562500
vt 0.984375 0.562500
vt 0.984375 0.625000
vt 0.937500 0.625000
vt 0.812500 0.625000
vt 0.937500 0.625000
vt 0.937500 0.687500
vt 0.812500 0.687500
vt 0.765625 0.625000
vt 0.812500 0.625000
vt 0.812500 0.687500
vt 0.765625 0.687500
vt 0.765625 0.562500
vt 0.812500 0.562500
vt 0.812500 0.625000
vt 0.765625 0.625000
vt 0.750000 0.562500
vt 0.765625 0.562500
vt 0.765625 0.625000
vt 0.750000 0.625000
vt 0.750000 0.625000
vt 0.765625 0.625000
vt 0.765625 0.687500
vt 0.750000 0.687500
vt 0.734375 0.562500
vt 0.750000 0.562500
vt 0.750000 0.625000
vt 0.734375 0.625000
vt 0.734375 0.625000
vt 0.750000 0.625000
vt 0.750000 0.687500
vt 0.734375 0.687500
vt 0.984375 0.562500
vt 1.000000 0.562500
vt 1.000000 0.625000
vt 0.984375 0.625000
vt 0.984375 0.625000
vt 1.000000 0.625000
vt 1.000000 0.687500
vt 0.984375 0.687500
vt 0.234375 0.562500
vt 0.250000 0.562500
vt 0.250000 0.625000
vt 0.234375 0.625000
vt 0.234375 0.625000
vt 0.250000 0.625000
vt 0.250000 0.687500
vt 0.234375 0.687500
vt 0.484375 0.562500
vt 0.500000 0.562500
vt 0.500000 0.625000
vt 0.484375 0.625000
vt 0.484375 0.625000
vt 0.500000 0.625000
vt 0.500000 0.687500
vt 0.484375 0.687500
vn 0.000000 1.000000 0.000000
vn 0.000000 1.000000 0.000000
vn 0.000000 1.000000 0.000000
vn 0.000000 1.000000 0.000000
vn -0.000000 0.000000 -1.000000
vn -0.000000 0.000000 -1.000000
vn -0.000000 0.000000 -1.000000
vn -0.000000 0.000000 -1.000000
vn 0.000000 -0.000000 1.000000
vn 0.000000 -0.000000 1.000000
vn 0.000000 -0.000000 1.000000
vn 0.000000 -0.000000 1.000000
vn 0.000000 1.000000 0.000000
vn 0.000000 1.000000 0.000000
vn 0.000000 1.000000 0.000000
vn 0.000000 1.000000 0.000000
vn 0.000001 1.000000 0.000000
vn 0.000001 1.000000 0.000000
vn 0.000001 1.000000 0.000000
vn 0.000001 1.000000 0.000000
vn 0.000000 -1.000000 -0.000000
vn 0.000000 -1.000000 -0.000000
vn 0.000000 -1.000000 -0.000000
vn 0.000000 -1.000000 -0.000000
vn -0.000000 -1.000000 -0.000000
vn -0.000000 -1.000000 -0.000000
vn -0.000000 -1.000000 -0.000000
vn -0.000000 -1.000000 -0.000000
vn -0.000000 -1.000000 -0.000000
vn -0.000000 -1.000000 -0.000000
vn -0.000000 -1.000000 -0.000000
vn -0.000000 -1.000000 -0.000000
vn -0.000000 -1.000000 -0.000000
vn -0.000000 -1.000000 -0.000000
vn -0.000000 -1.000000 -0.000000
vn -0.000000 -1.000000 -0.000000
vn -0.000000 -1.000000 -0.000000
vn -0.000000 -1.000000 -0.000000
vn -0.000000 -1.000000 -0.000000
vn -0.000000 -1.000000 -0.000000
vn -0.000000 -1.000000 -0.000000
vn -0.000000 -1.000000 -0.000000
vn -0.000000 -1.000000 -0.000000
vn -0.000000 -1.000000 -0.000000
vn -0.000000 -1.000000 -0.000000
vn -0.000000 -1.000000 -0.000000
vn -0.000000 -1.000000 -0.000000
vn -0.000000 -1.000000 -0.000000
vn -0.000000 -1.000000 -0.000000
vn -0.000000 -1.000000 -0.000000
vn -0.000000 -1.000000 -0.000000
vn -0.000000 -1.000000 -0.000000
vn -0.000000 -1.000000 -0.000000
vn -0.000000 -1.000000 -0.000000
vn -0.000000 -1.000000 -0.000000
vn -0.000000 -1.000000 -0.000000
vn 0.000000 1.000000 -0.000000
vn 0.000000 1.000000 -0.000000
vn 0.000000 1.000000 -0.000000
vn 0.000000 1.000000 -0.000000
vn 1.000000 0.000000 -0.000000
vn 1.000000 0.000000 -0.000000
vn 1.000000 0.000000 -0.000000
vn 1.000000 0.000000 -0.000000
vn -1.000000 -0.000000 0.000000
vn -1.000000 -0.000000 0.000000
vn -1.000000 -0.000000 0.000000
vn -1.000000 -0.000000 0.000000
vn -1.000000 -0.000000 0.000000
vn -1.000000 -0.000000 0.000000
vn -1.000000 -0.000000 0.000000
vn -1.000000 -0.000000 0.000000
vn -1.000000 -0.000000 0.000000
vn -1.000000 -0.000000 0.000000
vn -1.000000 -0.000000 0.000000
vn -1.000000 -0.000000 0.000000
vn -1.000000 -0.000000 -0.000000
vn -1.000000 -0.000000 -0.000000
vn -1.000000 -0.000000 -0.000000
vn -1.000000 -0.000000 -0.000000
vn 1.000000 0.000000 -0.000000
vn 1.000000 0.000000 -0.000000
vn 1.000000 0.000000 -0.000000
vn 1.000000 0.000000 -0.000000
vn 1.000000 0.000000 -0.000000
vn 1.000000 0.000000 -0.000000
vn 1.000000 0.000000 -0.000000
vn 1.000000 0.000000 -0.000000
vn 1.000000 0.000000 -0.000000
vn 1.000000 0.000000 -0.000000
vn 1.000000 0.000000 -0.000000
vn 1.000000 0.000000 -0.000000
vn 0.000000 -0.000000 1.000000
vn 0.000000 -0.000000 1.000000
vn 0.000000 -0.000000 1.000000
vn 0.000000 -0.000000 1.000000
vn 0.000000 0.000000 1.000000
vn 0.000000 0.000000 1.000000
vn 0.000000 0.000000 1.000000
vn 0.000000 0.000000 1.000000
vn 0.000000 -0.000000 1.000000
vn 0.000000 -0.000000 1.000000
vn 0.000000 -0.000000 1.000000
vn 0.000000 -0.000000 1.000000
vn -0.000000 0.000000 -1.000000
vn -0.000000 0.000000 -1.000000
vn -0.000000 0.000000 -1.000000
vn -0.000000 0.000000 -1.000000
vn -0.000000 0.000000 -1.000000
vn -0.000000 0.000000 -1.000000
vn -0.000000 0.000000 -1.000000
vn -0.000000 0.000000 -1.000000
vn -0.000000 0.000000 -1.000000
vn -0.000000 0.000000 -1.000000
vn -0.000000 0.000000 -1.000000
vn -0.000000 0.000000 -1.000000
vn 0.000001 -0.000000 1.000000
vn 0.000001 -0.000000 1.000000
vn 0.000001 -0.000000 1.000000
vn 0.000001 -0.000000 1.000000
vn -1.000000 0.000000 0.000000
vn -1.000000 0.000000 0.000000
vn -1.000000 0.000000 0.000000
vn -1.000000 0.000000 0.000000
vn -0.000000 0.000000 -1.000000
vn -0.000000 0.000000 -1.000000
vn -0.000000 0.000000 -1.000000
vn -0.000000 0.000000 -1.000000
vn 1.000000 0.000000 -0.000000
vn 1.000000 0.000000 -0.000000
vn 1.000000 0.000000 -0.000000
vn 1.000000 0.000000 -0.000000
vn 0.000000 1.000000 0.000001
vn 0.000000 1.000000 0.000001
vn 0.000000 1.000000 0.000001
vn 0.000000 1.000000 0.000001
vn -0.000000 -1.000000 -0.000000
vn -0.000000 -1.000000 -0.000000
vn -0.000000 -1.000000 -0.000000
vn -0.000000 -1.000000 -0.000000
vn 0.000000 -1.000000 -0.000000
vn 0.000000 -1.000000 -0.000000
vn 0.000000 -1.000000 -0.000000
vn 0.000000 -1.000000 -0.000000
vn -0.000000 -1.000000 -0.000000
vn -0.000000 -1.000000 -0.000000
vn -0.000000 -1.000000 -0.000000
vn -0.000000 -1.000000 -0.000000
vn -0.000000 -1.000000 -0.000000
vn -0.000000 -1.000000 -0.000000
vn -0.000000 -1.000000 -0.000000
vn -0.000000 -1.000000 -0.000000
vn 0.000000 1.000000 0.000000
vn 0.000000 1.000000 0.000000
vn 0.000000 1.000000 0.000000
vn 0.000000 1.000000 0.000000
vn 0.000000 1.000000 0.000001
vn 0.000000 1.000000 0.000001
vn 0.000000 1.000000 0.000001
vn 0.000000 1.000000 0.000001
vn 0.000000 1.000000 0.000001
vn 0.000000 1.000000 0.000001
vn 0.000000 1.000000 0.000001
vn 0.000000 1.000000 0.000001
vn 0.000000 1.000000 0.000001
vn 0.000000 1.000000 0.000001
vn 0.000000 1.000000 0.000001
vn 0.000000 1.000000 0.000001
vn -0.000001 0.000000 -1.000000
vn -0.000001 0.000000 -1.000000
vn -0.000001 0.000000 -1.000000
vn -0.000001 0.000000 -1.000000
vn 0.000000 0.000000 -1.000000
vn 0.000000 0.000000 -1.000000
vn 0.000000 0.000000 -1.000000
vn 0.000000 0.000000 -1.000000
vn -0.000000 0.000000 -1.000000
vn -0.000000 0.000000 -1.000000
vn -0.000000 0.000000 -1.000000
vn -0.000000 0.000000 -1.000000
vn -0.000000 0.000000 -1.000000
vn -0.000000 0.000000 -1.000000
vn -0.000000 0.000000 -1.000000
vn -0.000000 0.000000 -1.000000
vn 0.000000 -0.000000 1.000000
vn 0.000000 -0.000000 1.000000
vn 0.000000 -0.000000 1.000000
vn 0.000000 -0.000000 1.000000
vn 0.000000 0.000000 1.000000
vn 0.000000 0.000000 1.000000
vn 0.000000 0.000000 1.000000
vn 0.000000 0.000000 1.000000
vn 0.000000 0.000000 1.000000
vn 0.000000 0.000000 1.000000
vn 0.000000 0.000000 1.000000
vn 0.000000 0.000000 1.000000
vn 0.000000 0.000000 1.000000
vn 0.000000 0.000000 1.000000
vn 0.000000 0.000000 1.000000
vn 0.000000 0.000000 1.000000
vn 0.000000 1.000000 -0.000000
vn 0.000000 1.000000 -0.000000
vn 0.000000 1.000000 -0.000000
vn 0.000000 1.000000 -0.000000
vn 0.000000 1.000000 -0.000000
vn 0.000000 1.000000 -0.000000
vn 0.000000 1.000000 -0.000000
vn 0.000000 1.000000 -0.000000
vn 0.000000 1.000000 -0.000000
vn 0.000000 1.000000 -0.000000
vn 0.000000 1.000000 -0.000000
vn 0.000000 1.000000 -0.000000
vn 0.000000 1.000000 0.000000
vn 0.000000 1.000000 0.000000
vn 0.000000 1.000000 0.000000
vn 0.000000 1.000000 0.000000
vn 0.000000 1.000000 -0.000000
vn 0.000000 1.000000 -0.000000
vn 0.000000 1.000000 -0.000000
vn 0.000000 1.000000 -0.000000
vn 0.000000 1.000000 -0.000000
vn 0.000000 1.000000 -0.000000
vn 0.000000 1.000000 -0.000000
vn 0.000000 1.000000 -0.000000
vn 0.000000 1.000000 -0.000000
vn 0.000000 1.000000 -0.000000
vn 0.000000 1.000000 -0.000000
vn 0.000000 1.000000 -0.000000
vn 0.000000 1.000000 0.000000
vn 0.000000 1.000000 0.000000
vn 0.000000 1.000000 0.000000
vn 0.000000 1.000000 0.000000
vn 0.000000 1.000000 -0.000000
vn 0.000000 1.000000 -0.000000
vn 0.000000 1.000000 -0.000000
vn 0.000000 1.000000 -0.000000
vn 0.000000 1.000000 -0.000000
vn 0.000000 1.000000 -0.000000
vn 0.000000 1.000000 -0.000000
vn 0.000000 1.000000 -0.000000
vn 0.000000 1.000000 -0.000000
vn 0.000000 1.000000 -0.000000
vn 0.000000 1.000000 -0.000000
vn 0.000000 1.000000 -0.000000
vn 0.000000 1.000000 0.000000
vn 0.000000 1.000000 0.000000
vn 0.000000 1.000000 0.000000
vn 0.000000 1.000000 0.000000
vn 0.000000 1.000000 0.000000
vn 0.000000 1.000000 0.000000
vn 0.000000 1.000000 0.000000
vn 0.000000 1.000000 0.000000
vn 0.000000 1.000000 0.000000
vn 0.000000 1.000000 0.000000
vn 0.000000 1.000000 0.000000
vn 0.000000 1.000000 0.000000
vn 0.000001 1.000000 -0.000000
vn 0.000001 1.000000 -0.000000
vn 0.000001 1.000000 -0.000000
vn 0.000001 1.000000 -0.000000
vn 0.000001 1.000000 -0.000000
vn 0.000001 1.000000 -0.000000
vn 0.000001 1.000000 -0.000000
vn 0.000001 1.000000 -0.000000
vn 0.000000 -1.000000 0.000000
vn 0.000000 -1.000000 0.000000
vn 0.000000 -1.000000 0.000000
vn 0.000000 -1.000000 0.000000
vn 0.000000 -1.000000 0.000000
vn 0.000000 -1.000000 0.000000
vn 0.000000 -1.000000 0.000000
vn 0.000000 -1.000000 0.000000
vn 0.000000 -1.000000 0.000000
vn 0.000000 -1.000000 0.000000
vn 0.000000 -1.000000 0.000000
vn 0.000000 -1.000000 0.000000
vn -0.000000 -1.000000 -0.000000
vn -0.000000 -1.000000 -0.000000
vn -0.000000 -1.000000 -0.000000
vn -0.000000 -1.000000 -0.000000
vn -0.000000 -1.000000 -0.000000
vn -0.000000 -1.000000 -0.000000
vn -0.000000 -1.000000 -0.000000
vn -0.000000 -1.000000 -0.000000
vn -0.000000 -1.000000 -0.000000
vn -0.000000 -1.000000 -0.000000
vn -0.000000 -1.000000 -0.000000
vn -0.000000 -1.000000 -0.000000
vn -0.000000 -1.000000 -0.000000
vn -0.000000 -1.000000 -0.000000
vn -0.000000 -1.000000 -0.000000
vn -0.000000 -1.000000 -0.000000
vn -0.000000 -1.000000 0.000000
vn -0.000000 -1.000000 0.000000
vn -0.000000 -1.000000 0.000000
vn -0.000000 -1.000000 0.000000
vn 0.000000 1.000000 0.000000
vn 0.000000 1.000000 0.000000
vn 0.000000 1.000000 0.000000
vn 0.000000 1.000000 0.000000
vn 0.000000 1.000000 -0.000000
vn 0.000000 1.000000 -0.000000
vn 0.000000 1.000000 -0.000000
vn 0.000000 1.000000 -0.000000
vn 0.000000 1.000000 -0.000000
vn 0.000000 1.000000 -0.000000
vn 0.000000 1.000000 -0.000000
vn 0.000000 1.000000 -0.000000
vn 0.000000 1.000000 -0.000000
vn 0.000000 1.000000 -0.000000
vn 0.000000 1.000000 -0.000000
vn 0.000000 1.000000 -0.000000
vn 1.000000 0.000000 -0.000000
vn 1.000000 0.000000 -0.000000
vn 1.000000 0.000000 -0.000000
vn 1.000000 0.000000 -0.000000
vn 1.000000 0.000000 0.000000
vn 1.000000 0.000000 0.000000
vn 1.000000 0.000000 0.000000
vn 1.000000 0.000000 0.000000
vn 1.000000 0.000000 -0.000000
vn 1.000000 0.000000 -0.000000
vn 1.000000 0.000000 -0.000000
vn 1.000000 0.000000 -0.000000
vn 1.000000 0.000000 -0.000000
vn 1.000000 0.000000 -0.000000
vn 1.000000 0.000000 -0.000000
vn 1.000000 0.000000 -0.000000
vn -1.000000 -0.000000 -0.000000
vn -1.000000 -0.000000 -0.000000
vn -1.000000 -0.000000 -0.000000
vn -1.000000 -0.000000 -0.000000
vn -1.000000 0.000000 0.000000
vn -1.000000 0.000000 0.000000
vn -1.000000 0.000000 0.000000
vn -1.000000 0.000000 0.000000
vn -1.000000 0.000000 0.000000
vn -1.000000 0.000000 0.000000
vn -1.000000 0.000000 0.000000
vn -1.000000 0.000000 0.000000
vn -1.000000 0.000000 0.000000
vn -1.000000 0.000000 0.000000
vn -1.000000 0.000000 0.000000
vn -1.000000 0.000000 0.000000
vn -1.000000 -0.000000 0.000000
vn -1.000000 -0.000000 0.000000
vn -1.000000 -0.000000 0.000000
vn -1.000000 -0.000000 0.000000
vn -1.000000 -0.000000 0.000000
vn -1.000000 -0.000000 0.000000
vn -1.000000 -0.000000 0.000000
vn -1.000000 -0.000000 0.000000
vn -1.000000 -0.000000 0.000000
vn -1.000000 -0.000000 0.000000
vn -1.000000 -0.000000 0.000000
vn -1.000000 -0.000000 0.000000
vn -1.000000 -0.000000 -0.000000
vn -1.000000 -0.000000 -0.000000
vn -1.000000 -0.000000 -0.000000
vn -1.000000 -0.000000 -0.000000
vn -1.000000 -0.000000 -0.000000
vn -1.000000 -0.000000 -0.000000
vn -1.000000 -0.000000 -0.000000
vn -1.000000 -0.000000 -0.000000
vn -1.000000 -0.000000 -0.000000
vn -1.000000 -0.000000 -0.000000
vn -1.000000 -0.000000 -0.000000
vn -1.000000 -0.000000 -0.000000
vn -1.000000 -0.000000 -0.000000
vn -1.000000 -0.000000 -0.000000
vn -1.000000 -0.000000 -0.000000
vn -1.000000 -0.000000 -0.000000
vn 1.000000 0.000000 -0.000000
vn 1.000000 0.000000 -0.000000
vn 1.000000 0.000000 -0.000000
vn 1.000000 0.000000 -0.000000
vn 1.000000 0.000000 -0.000000
vn 1.000000 0.000000 -0.000000
vn 1.000000 0.000000 -0.000000
vn 1.000000 0.000000 -0.000000
vn 1.000000 0.000000 -0.000000
vn 1.000000 0.000000 -0.000000
vn 1.000000 0.000000 -0.000000
vn 1.000000 0.000000 -0.000000
vn 1.000000 0.000000 -0.000000
vn 1.000000 0.000000 -0.000000
vn 1.000000 0.000000 -0.000000
vn 1.000000 0.000000 -0.000000
vn 1.000000 0.000000 -0.000000
vn 1.000000 0.000000 -0.000000
vn 1.000000 0.000000 -0.000000
vn 1.000000 0.000000 -0.000000
vn 1.000000 0.000000 -0.000000
vn 1.000000 0.000000 -0.000000
vn 1.000000 0.000000 -0.000000
vn 1.000000 0.000000 -0.000000
vn 1.000000 0.000000 -0.000000
vn 1.000000 0.000000 -0.000000
vn 1.000000 0.000000 -0.000000
vn 1.000000 0.000000 -0.000000
vn 0.000000 -0.000000 1.000000
vn 0.000000 -0.000000 1.000000
vn 0.000000 -0.000000 1.000000
vn 0.000000 -0.000000 1.000000
vn 0.000000 -0.000000 1.000000
vn 0.000000 -0.000000 1.000000
vn 0.000000 -0.000000 1.000000
vn 0.000000 -0.000000 1.000000
vn 0.000000 -0.000000 1.000000
vn 0.000000 -0.000000 1.000000
vn 0.000000 -0.000000 1.000000
vn 0.000000 -0.000000 1.000000
vn 0.000000 -0.000000 1.000000
vn 0.000000 -0.000000 1.000000
vn 0.000000 -0.000000 1.000000
vn 0.000000 -0.000000 1.000000
vn 0.000000 -0.000000 1.000000
vn 0.000000 -0.000000 1.000000
vn 0.000000 -0.000000 1.000000
vn 0.000000 -0.000000 1.000000
vn 0.000000 -0.000000 1.000000
vn 0.000000 -0.000000 1.000000
vn 0.000000 -0.000000 1.000000
vn 0.000000 -0.000000 1.000000
vn 0.000000 -0.000000 1.000000
vn 0.000000 -0.000000 1.000000
vn 0.000000 -0.000000 1.000000
vn 0.000000 -0.000000 1.000000
vn -0.000000 0.000000 -1.000000
vn -0.000000 0.000000 -1.000000
vn -0.000000 0.000000 -1.000000
vn -0.000000 0.000000 -1.000000
vn -0.000000 0.000000 -1.000000
vn -0.000000 0.000000 -1.000000
vn -0.000000 0.000000 -1.000000
vn -0.000000 0.000000 -1.000000
vn -0.000000 0.000000 -1.000000
vn -0.000000 0.000000 -1.000000
vn -0.000000 0.000000 -1.000000
vn -0.000000 0.000000 -1.000000
vn -0.000000 0.000000 -1.000000
vn -0.000000 0.000000 -1.000000
vn -0.000000 0.000000 -1.000000
vn -0.000000 0.000000 -1.000000
vn -0.000000 0.000000 -1.000000
vn -0.000000 0.000000 -1.000000
vn -0.000000 0.000000 -1.000000
vn -0.000000 0.000000 -1.000000
vn -0.000000 0.000000 -1.000000
vn -0.000000 0.000000 -1.000000
vn -0.000000 0.000000 -1.000000
vn -0.000000 0.000000 -1.000000
vn -0.000001 0.000000 -1.000000
vn -0.000001 0.000000 -1.000000
vn -0.000001 0.000000 -1.000000
vn -0.000001 0.000000 -1.000000
vn 1.000000 0.000000 -0.000000
vn 1.000000 0.000000 -0.000000
vn 1.000000 0.000000 -0.000000
vn 1.000000 0.000000 -0.000000
vn 1.000000 0.000000 -0.000000
vn 1.000000 0.000000 -0.000000
vn 1.000000 0.000000 -0.000000
vn 1.000000 0.000000 -0.000000
vn -0.000000 0.000000 -1.000000
vn -0.000000 0.000000 -1.000000
vn -0.000000 0.000000 -1.000000
vn -0.000000 0.000000 -1.000000
vn -0.000000 0.000000 -1.000000
vn -0.000000 0.000000 -1.000000
vn -0.000000 0.000000 -1.000000
vn -0.000000 0.000000 -1.000000
vn -1.000000 -0.000000 0.000000
vn -1.000000 -0.000000 0.000000
vn -1.000000 -0.000000 0.000000
vn -1.000000 -0.000000 0.000000
vn -1.000000 -0.000000 0.000000
vn -1.000000 -0.000000 0.000000
vn -1.000000 -0.000000 0.000000
vn -1.000000 -0.000000 0.000000
vn 0.000000 -0.000000 1.000000
vn 0.000000 -0.000000 1.000000
vn 0.000000 -0.000000 1.000000
vn 0.000000 -0.000000 1.000000
vn 0.000001 -0.000000 1.000000
vn 0.000001 -0.000000 1.000000
vn 0.000001 -0.000000 1.000000
vn 0.000001 -0.000000 1.000000
o base
usemtl Shulker
f 30/1/1 7/2/2 8/3/3 28/4/4
f 38/5/5 11/6/6 12/7/7 37/8/8
f 40/9/9 8/10/10 7/11/11 39/12/12
f 12/13/13 11/14/14 29/15/15 27/16/16
f 25/17/17 26/18/18 19/19/19 20/20/20
f 14/21/21 23/22/22 5/23/23 2/24/24
f 6/25/25 5/26/26 23/27/27 21/28/28
f 23/29/29 24/30/30 22/31/31 21/32/32
f 24/33/33 9/34/34 10/35/35 22/36/36
f 22/37/37 18/38/38 17/39/39 21/40/40
f 22/41/41 10/42/42 4/43/43 18/44/44
f 21/45/45 17/46/46 3/47/47 6/48/48
f 13/49/49 24/50/50 23/51/51 14/52/52
f 1/53/53 9/54/54 24/55/55 13/56/56
f 15/57/57 16/58/58 32/59/59 31/60/60
f 42/61/61 20/62/62 19/63/63 41/64/64
f 44/65/65 16/66/66 15/67/67 43/68/68
f 14/69/69 2/70/70 33/71/71 44/72/72
f 13/73/73 14/74/74 44/75/75 43/76/76
f 1/77/77 13/78/78 43/79/79 35/80/80
f 18/81/81 4/82/82 36/83/83 42/84/84
f 17/85/85 18/86/86 42/87/87 41/88/88
f 3/89/89 17/90/90 41/91/91 34/92/92
f 6/93/93 3/94/94 34/95/95 40/96/96
f 5/97/97 6/98/98 40/99/99 39/100/100
f 2/101/101 5/102/102 39/103/103 33/104/104
f 9/105/105 1/106/106 35/107/107 38/108/108
f 10/109/109 9/110/110 38/111/111 37/112/112
f 4/113/113 10/114/114 37/115/115 36/116/116
o lid
usemtl Shulker
f 136/117/117 115/118/118 49/119/119 60/120/120
f 152/121/121 113/122/122 46/123/123 76/124/124
f 128/125/125 117/126/126 45/127/127 65/128/128
f 144/129/129 119/130/130 50/131/131 84/132/132
f 112/133/133 76/134/134 46/135/135 57/136/136
f 96/137/137 69/138/138 47/139/139 61/140/140
f 80/141/141 88/142/142 64/143/143 52/144/144
f 90/145/145 63/146/146 64/147/147 88/148/148
f 96/149/149 61/150/150 62/151/151 92/152/152
f 81/153/153 100/154/154 60/155/155 49/156/156
f 104/157/157 59/158/158 60/159/159 100/160/160
f 108/161/161 58/162/162 59/163/163 104/164/164
f 112/165/165 57/166/166 58/167/167 108/168/168
f 119/169/169 122/170/170 68/171/171 50/172/172
f 124/173/173 67/174/174 68/175/175 122/176/176
f 126/177/177 66/178/178 67/179/179 124/180/180
f 128/181/181 65/182/182 66/183/183 126/184/184
f 113/185/185 130/186/186 57/187/187 46/188/188
f 132/189/189 58/190/190 57/191/191 130/192/192
f 134/193/193 59/194/194 58/195/195 132/196/196
f 136/197/197 60/198/198 59/199/199 134/200/200
f 109/201/201 110/202/202 106/203/203 105/204/204
f 111/205/205 107/206/206 106/207/207 110/208/208
f 111/209/209 112/210/210 108/211/211 107/212/212
f 66/213/213 65/214/214 109/215/215 105/216/216
f 105/217/217 106/218/218 102/219/219 101/220/220
f 106/221/221 107/222/222 103/223/223 102/224/224
f 107/225/225 108/226/226 104/227/227 103/228/228
f 67/229/229 66/230/230 105/231/231 101/232/232
f 101/233/233 102/234/234 98/235/235 97/236/236
f 103/237/237 99/238/238 98/239/239 102/240/240
f 103/241/241 104/242/242 100/243/243 99/244/244
f 68/245/245 67/246/246 101/247/247 97/248/248
f 50/249/249 68/250/250 97/251/251 84/252/252
f 97/253/253 98/254/254 83/255/255 84/256/256
f 98/257/257 99/258/258 82/259/259 83/260/260
f 99/261/261 100/262/262 81/263/263 82/264/264
f 54/265/265 53/266/266 93/267/267 91/268/268
f 56/269/269 55/270/270 89/271/271 85/272/272
f 51/273/273 56/274/274 85/275/275 77/276/276
f 85/277/277 86/278/278 78/279/279 77/280/280
f 87/281/281 88/282/282 80/283/283 79/284/284
f 53/285/285 48/286/286 72/287/287 93/288/288
f 71/289/289 94/290/290 93/291/291 72/292/292
f 69/293/293 96/294/294 95/295/295 70/296/296
f 65/297/297 45/298/298 73/299/299 109/300/300
f 73/301/301 74/302/302 110/303/303 109/304/304
f 74/305/305 75/306/306 111/307/307 110/308/308
f 75/309/309 76/310/310 112/311/311 111/312/312
f 115/313/313 138/314/314 81/315/315 49/316/316
f 140/317/317 82/318/318 81/319/319 138/320/320
f 142/321/321 83/322/322 82/323/323 140/324/324
f 144/325/325 84/326/326 83/327/327 142/328/328
f 117/329/329 146/330/330 73/331/331 45/332/332
f 148/333/333 74/334/334 73/335/335 146/336/336
f 150/337/337 75/338/338 74/339/339 148/340/340
f 152/341/341 76/342/342 75/343/343 150/344/344
f 149/345/345 151/346/346 152/347/347 150/348/348
f 71/349/349 72/350/350 151/351/351 149/352/352
f 147/353/353 149/354/354 150/355/355 148/356/356
f 145/357/357 147/358/358 148/359/359 146/360/360
f 69/361/361 70/362/362 147/363/363 145/364/364
f 47/365/365 69/366/366 145/367/367 118/368/368
f 118/369/369 145/370/370 146/371/371 117/372/372
f 141/373/373 143/374/374 144/375/375 142/376/376
f 79/377/377 80/378/378 143/379/379 141/380/380
f 139/381/381 141/382/382 142/383/383 140/384/384
f 137/385/385 139/386/386 140/387/387 138/388/388
f 77/389/389 78/390/390 139/391/391 137/392/392
f 51/393/393 77/394/394 137/395/395 116/396/396
f 116/397/397 137/398/398 138/399/399 115/400/400
f 133/401/401 135/402/402 136/403/403 134/404/404
f 55/405/405 56/406/406 135/407/407 133/408/408
f 131/409/409 133/410/410 134/411/411 132/412/412
f 129/413/413 131/414/414 132/415/415 130/416/416
f 53/417/417 54/418/418 131/419/419 129/420/420
f 48/421/421 53/422/422 129/423/423 114/424/424
f 114/425/425 129/426/426 130/427/427 113/428/428
f 125/429/429 127/430/430 128/431/431 126/432/432
f 62/433/433 61/434/434 127/435/435 125/436/436
f 123/437/437 125/438/438 126/439/439 124/440/440
f 121/441/441 123/442/442 124/443/443 122/444/444
f 64/445/445 63/446/446 123/447/447 121/448/448
f 52/449/449 64/450/450 121/451/451 120/452/452
f 120/453/453 121/454/454 122/455/455 119/456/456
f 80/457/457 52/458/458 120/459/459 143/460/460
f 143/461/461 120/462/462 119/463/463 144/464/464
f 61/465/465 47/466/466 118/467/467 127/468/468
f 127/469/469 118/470/470 117/471/471 128/472/472
f 72/473/473 48/474/474 114/475/475 151/476/476
f 151/477/477 114/478/478 113/479/479 152/480/480
f 56/481/481 51/482/482 116/483/483 135/484/484
f 135/485/485 116/486/486 115/487/487 136/488/488
